<?xml version="1.0" encoding="utf-8"?>
<!-- Generator: Adobe Illustrator 22.1.0, SVG Export Plug-In . SVG Version: 6.00 Build 0)  -->
<svg version="1.1" id="Layer_1" xmlns="http://www.w3.org/2000/svg" xmlns:xlink="http://www.w3.org/1999/xlink" x="0px" y="0px"
	 viewBox="0 0 120 120" style="enable-background:new 0 0 120 120;" xml:space="preserve">
<g>
	<path d="M37.4,13.8c0.6,1,1.7,2.8,4.3,1.7c1.4-0.6,2.3-1.6,1.7-3c-0.5-1.2-1.4-1.5-3.5-1.2c-2.5,0.4-4.6,0.3-5.6-1.9
		c-0.7-1.7,0-3.9,2.6-5c2.1-0.9,4.2-0.4,5.6,1.5l-1.7,1.1c-0.5-0.6-1.5-1.5-3.2-0.8c-1.3,0.6-1.8,1.6-1.5,2.3c0.4,1,1.8,0.9,3.5,0.7
		c2-0.2,4.5-0.5,5.7,2.4c0.9,2.3-0.1,4.6-2.9,5.7c-3.7,1.5-5.8-0.7-6.8-2.5L37.4,13.8z"/>
	<path d="M50,3l-4.1,0.6l-0.3-2L55.9,0l0.3,2l-4.1,0.6L53.9,14l-2.1,0.3L50,3z"/>
	<path d="M64.2,0.2L66,0.4l3.5,13.9l-2.2-0.2L66.7,11l-4.9-0.4l-1.2,2.9l-2.1-0.2L64.2,0.2z M66.2,9.1l-1.4-5.8l-2.3,5.5L66.2,9.1z"
		/>
	<path d="M75.7,10.1l-1.6-8.6l2.1,0.7l1.1,6.4l4.8-4.4L84.3,5l-6.7,5.9l-1.9,5.5l-2-0.7L75.7,10.1z"/>
	<path d="M99.5,14.6l1.5,1.5l-6.2,7.2l5.7-3.1l0.9,0.9l-3.2,5.4l7.4-5.7l1.5,1.5l-10.8,8.3l-1.5-1.6l3.4-5.7l-5.8,3.2L90.7,25
		L99.5,14.6z"/>
	<path d="M110,26.7l4.2,7.2l-1.8,1l-3.1-5.4l-2.9,1.7l2.8,4.9l-1.8,1l-2.8-4.9l-3.5,2l3.1,5.4l-1.8,1l-4.2-7.2L110,26.7z"/>
	<path d="M105.3,42.4l0.9,3l9.1-2.6l-0.9-3l1.9-0.6l2.4,8.1l-1.9,0.6l-0.9-3.1l-9.1,2.6l0.9,3.1l-1.9,0.6l-2.4-8.1L105.3,42.4z"/>
	<path d="M119.7,53.4l0.2,4.6c0.1,2.2-1.5,4.1-3.8,4.2c-2.8,0.1-3.8-2.2-3.8-2.2l-5.7,3l-0.1-2.3l5.4-2.9l-0.1-1.9l-5.6,0.2
		l-0.1-2.1L119.7,53.4z M114,58.2c0,0.6,0.3,1.9,2,1.8c1.3-0.1,1.9-1,1.9-2l-0.1-2.4l-3.9,0.2L114,58.2z"/>
	<path d="M119.6,67.3l-0.9,4.5c-0.6,2.9-2.8,4.7-7.6,3.7c-4.9-1-6.2-3.5-5.6-6.4l0.9-4.5L119.6,67.3z M107.5,69.6
		c-0.4,2,0.3,3.1,4,3.9c3.7,0.8,4.8,0,5.2-2l0.5-2.4l-9.3-1.9L107.5,69.6z"/>
	<path d="M104.4,93.8l2.3-0.9l0.7,1.8l-2.1,0.8l1.9,1.5l-1.2,1.5l-1.9-1.5l-0.3,2.3l-1.9-0.3l0.4-2.5l-2.6,0.1l0-1.9l3-0.1l-0.6-2.9
		l1.8-0.3L104.4,93.8z"/>
	<path d="M83.2,105.9c-0.6-1-1.7-2.8-4.3-1.7c-1.3,0.6-2.3,1.6-1.7,3c0.5,1.2,1.5,1.4,3.5,1.1c2.5-0.4,4.6-0.4,5.6,1.9
		c0.7,1.7,0.1,3.9-2.5,5c-2.1,0.9-4.2,0.4-5.6-1.4l1.6-1.2c0.5,0.6,1.5,1.4,3.2,0.7c1.3-0.6,1.8-1.6,1.4-2.3c-0.4-1-1.8-0.9-3.5-0.7
		c-2,0.2-4.5,0.5-5.7-2.3c-1-2.2,0.1-4.6,2.8-5.7c3.7-1.6,5.8,0.7,6.8,2.4L83.2,105.9z"/>
	<path d="M70.8,116.9l4.1-0.7l0.3,2l-10.2,1.8l-0.3-2l4.1-0.7l-1.9-11.3l2.1-0.4L70.8,116.9z"/>
	<path d="M56.6,119.8l-1.8-0.1L51,105.9l2.2,0.2l0.7,3.1l4.9,0.4l1.2-2.9l2.1,0.2L56.6,119.8z M54.4,110.9l1.5,5.8l2.3-5.5
		L54.4,110.9z"/>
	<path d="M45,110.1l1.7,8.6l-2.1-0.7l-1.2-6.4l-4.7,4.5l-2.3-0.7l6.6-6l1.8-5.5l2,0.6L45,110.1z"/>
	<path d="M21.1,105.9l-1.5-1.5l6.1-7.3l-5.6,3.1l-0.9-0.9l3.1-5.4L15,99.7l-1.5-1.5l10.6-8.4l1.6,1.6l-3.3,5.7l5.8-3.2l1.6,1.6
		L21.1,105.9z"/>
	<path d="M10.5,94l-4.3-7.2l1.7-1l3.2,5.4l2.9-1.7l-2.9-4.9l1.7-1l2.9,4.9l3.5-2.1l-3.2-5.4l1.7-1l4.3,7.2L10.5,94z"/>
	<path d="M14.9,78.2l-0.9-3l-9,2.8l0.9,3l-1.9,0.6l-2.5-8.1l1.9-0.6l0.9,3l9-2.8l-0.9-3l1.9-0.6l2.5,8.1L14.9,78.2z"/>
	<path d="M0.4,67.4l-0.3-4.6c-0.1-2.2,1.5-4.1,3.7-4.2c2.8-0.2,3.8,2.2,3.8,2.2l5.7-3.1l0.1,2.3l-5.4,2.9l0.1,1.9l5.6-0.3l0.1,2.1
		L0.4,67.4z M6.1,62.5c0-0.6-0.3-1.9-2-1.8c-1.3,0.1-1.9,1.1-1.9,2l0.1,2.4l3.9-0.2L6.1,62.5z"/>
	<path d="M0.3,53.5l0.9-4.5c0.5-2.9,2.7-4.7,7.6-3.8c4.9,0.9,6.2,3.4,5.7,6.3L13.5,56L0.3,53.5z M12.4,51.1c0.4-2-0.4-3.1-4.1-3.8
		c-3.8-0.7-4.8,0.1-5.2,2.1l-0.5,2.4l9.3,1.8L12.4,51.1z"/>
	<path d="M15.2,26.8l-2.3,0.9L12.1,26l2.1-0.8l-1.9-1.5l1.2-1.5l1.9,1.5l0.3-2.3l1.9,0.3l-0.4,2.5l2.6-0.1l0.1,1.9l-3,0.2l0.6,2.9
		l-1.8,0.4L15.2,26.8z"/>
</g>
</svg>
